# Blender v2.92.0 OBJ File: ''
# www.blender.org
mtllib column.mtl
o Cube_Cube.002
v -0.744236 -7.621992 0.744236
v -1.000000 -7.914485 1.000000
v -0.744236 -7.621992 -0.744236
v -1.000000 -7.914485 -1.000000
v 0.744236 -7.621992 0.744236
v 1.000000 -7.914485 1.000000
v 0.744236 -7.621992 -0.744236
v 1.000000 -7.914485 -1.000000
v -1.000000 -7.621992 -1.000000
v -1.000000 -7.621992 1.000000
v 1.000000 -7.621992 -1.000000
v 1.000000 -7.621992 1.000000
v -0.583273 -7.378285 0.583273
v -0.583273 -7.378285 -0.583273
v 0.583273 -7.378285 0.583273
v 0.583273 -7.378285 -0.583273
v -0.744236 -7.378285 -0.744236
v -0.744236 -7.378285 0.744236
v 0.744236 -7.378285 -0.744236
v 0.744236 -7.378285 0.744236
v -0.346988 -4.765067 0.346988
v -0.346988 -4.765067 -0.346988
v 0.346988 -4.765067 0.346988
v 0.346988 -4.765067 -0.346988
v -0.583273 -4.765067 -0.583273
v -0.583273 -4.765067 0.583273
v 0.583273 -4.765067 -0.583273
v 0.583273 -4.765067 0.583273
v 0.155178 -4.765067 -0.465534
v -0.155178 -4.765067 -0.465534
v -0.155178 -4.765067 0.465534
v 0.155178 -4.765067 0.465534
v -0.465534 -4.765067 -0.155178
v -0.465534 -4.765067 0.155178
v 0.465534 -4.765067 0.155178
v 0.465534 -4.765067 -0.155178
v 0.744236 -7.621992 0.744236
v 1.000000 -7.914485 1.000000
v 0.744236 -7.621992 -0.744236
v 1.000000 -7.914485 -1.000000
v -0.744236 -7.621992 0.744236
v -1.000000 -7.914485 1.000000
v -0.744236 -7.621992 -0.744236
v -1.000000 -7.914485 -1.000000
v 1.000000 -7.621992 -1.000000
v 1.000000 -7.621992 1.000000
v -1.000000 -7.621992 -1.000000
v -1.000000 -7.621992 1.000000
v 0.583273 -7.378285 0.583273
v 0.583273 -7.378285 -0.583273
v -0.583273 -7.378285 0.583273
v -0.583273 -7.378285 -0.583273
v 0.744236 -7.378285 -0.744236
v 0.744236 -7.378285 0.744236
v -0.744236 -7.378285 -0.744236
v -0.744236 -7.378285 0.744236
v 0.346988 -4.765067 0.346988
v 0.346988 -4.765067 -0.346988
v -0.346988 -4.765067 0.346988
v -0.346988 -4.765067 -0.346988
v 0.583273 -4.765067 -0.583273
v 0.583273 -4.765067 0.583273
v -0.583273 -4.765067 -0.583273
v -0.583273 -4.765067 0.583273
v -0.155178 -4.765067 -0.465534
v 0.155178 -4.765067 -0.465534
v 0.155178 -4.765067 0.465534
v -0.155178 -4.765067 0.465534
v 0.465534 -4.765067 -0.155178
v 0.465534 -4.765067 0.155178
v -0.465534 -4.765067 0.155178
v -0.465534 -4.765067 -0.155178
v -0.744236 7.621992 0.744236
v -1.000000 7.914485 1.000000
v -0.744236 7.621992 -0.744236
v -1.000000 7.914485 -1.000000
v 0.744236 7.621992 0.744236
v 1.000000 7.914485 1.000000
v 0.744236 7.621992 -0.744236
v 1.000000 7.914485 -1.000000
v -1.000000 7.621992 -1.000000
v -1.000000 7.621992 1.000000
v 1.000000 7.621992 -1.000000
v 1.000000 7.621992 1.000000
v -0.583273 7.378285 0.583273
v -0.583273 7.378285 -0.583273
v 0.583273 7.378285 0.583273
v 0.583273 7.378285 -0.583273
v -0.744236 7.378285 -0.744236
v -0.744236 7.378285 0.744236
v 0.744236 7.378285 -0.744236
v 0.744236 7.378285 0.744236
v -0.346988 4.765067 0.346988
v -0.346988 4.765067 -0.346988
v 0.346988 4.765067 0.346988
v 0.346988 4.765067 -0.346988
v -0.583273 4.765067 -0.583273
v -0.583273 4.765067 0.583273
v 0.583273 4.765067 -0.583273
v 0.583273 4.765067 0.583273
v 0.155178 4.765067 -0.465534
v -0.155178 4.765067 -0.465534
v -0.155178 4.765067 0.465534
v 0.155178 4.765067 0.465534
v -0.465534 4.765067 -0.155178
v -0.465534 4.765067 0.155178
v 0.465534 4.765067 0.155178
v 0.465534 4.765067 -0.155178
v 0.346988 0.000000 -0.346988
v 0.346988 0.000000 0.346988
v -0.346988 0.000000 -0.346988
v -0.346988 0.000000 0.346988
v 0.155178 0.000000 -0.465534
v -0.155178 0.000000 -0.465534
v -0.155178 0.000000 0.465534
v 0.155178 0.000000 0.465534
v -0.465534 0.000000 -0.155178
v -0.465534 0.000000 0.155178
v 0.465534 0.000000 0.155178
v 0.465534 0.000000 -0.155178
v 0.744236 7.621992 0.744236
v 1.000000 7.914485 1.000000
v 0.744236 7.621992 -0.744236
v 1.000000 7.914485 -1.000000
v -0.744236 7.621992 0.744236
v -1.000000 7.914485 1.000000
v -0.744236 7.621992 -0.744236
v -1.000000 7.914485 -1.000000
v 1.000000 7.621992 -1.000000
v 1.000000 7.621992 1.000000
v -1.000000 7.621992 -1.000000
v -1.000000 7.621992 1.000000
v 0.583273 7.378285 0.583273
v 0.583273 7.378285 -0.583273
v -0.583273 7.378285 0.583273
v -0.583273 7.378285 -0.583273
v 0.744236 7.378285 -0.744236
v 0.744236 7.378285 0.744236
v -0.744236 7.378285 -0.744236
v -0.744236 7.378285 0.744236
v 0.346988 4.765067 0.346988
v 0.346988 4.765067 -0.346988
v -0.346988 4.765067 0.346988
v -0.346988 4.765067 -0.346988
v 0.583273 4.765067 -0.583273
v 0.583273 4.765067 0.583273
v -0.583273 4.765067 -0.583273
v -0.583273 4.765067 0.583273
v -0.155178 4.765067 -0.465534
v 0.155178 4.765067 -0.465534
v 0.155178 4.765067 0.465534
v -0.155178 4.765067 0.465534
v 0.465534 4.765067 -0.155178
v 0.465534 4.765067 0.155178
v -0.465534 4.765067 0.155178
v -0.465534 4.765067 -0.155178
v -0.346988 0.000000 -0.346988
v -0.346988 0.000000 0.346988
v 0.346988 0.000000 -0.346988
v 0.346988 0.000000 0.346988
v -0.155178 0.000000 -0.465534
v 0.155178 0.000000 -0.465534
v 0.155178 0.000000 0.465534
v -0.155178 0.000000 0.465534
v 0.465534 0.000000 -0.155178
v 0.465534 0.000000 0.155178
v -0.465534 0.000000 0.155178
v -0.465534 0.000000 -0.155178
vt 0.375000 0.000000
vt 0.375000 0.250000
vt 0.625000 0.250000
vt 0.625000 0.000000
vt 0.375000 0.500000
vt 0.625000 0.500000
vt 0.375000 0.750000
vt 0.625000 0.750000
vt 0.375000 1.000000
vt 0.625000 1.000000
vt 0.343030 0.531971
vt 0.343030 0.531971
vt 0.343030 0.718030
vt 0.343030 0.718030
vt 0.875000 0.750000
vt 0.875000 0.500000
vt 0.156970 0.531971
vt 0.125000 0.500000
vt 0.125000 0.750000
vt 0.156971 0.718029
vt 0.322909 0.697909
vt 0.322909 0.697909
vt 0.177091 0.697909
vt 0.177091 0.697909
vt 0.156971 0.718029
vt 0.156970 0.531971
vt 0.177091 0.552091
vt 0.322909 0.552091
vt 0.232586 0.572758
vt 0.232586 0.572758
vt 0.267414 0.572758
vt 0.267414 0.572758
vt 0.177091 0.552091
vt 0.322909 0.552091
vt 0.197758 0.572758
vt 0.197758 0.677242
vt 0.197758 0.642414
vt 0.197758 0.607586
vt 0.302242 0.572758
vt 0.302242 0.677242
vt 0.302242 0.607586
vt 0.302242 0.642414
vt 0.267414 0.677242
vt 0.232586 0.677242
vt 0.302242 0.607586
vt 0.302242 0.642414
vt 0.232586 0.677242
vt 0.197758 0.677242
vt 0.197758 0.607586
vt 0.197758 0.572758
vt 0.197758 0.642414
vt 0.267414 0.677242
vt 0.302242 0.677242
vt 0.302242 0.572758
vt 0.375000 0.000000
vt 0.625000 0.000000
vt 0.625000 0.250000
vt 0.375000 0.250000
vt 0.625000 0.500000
vt 0.375000 0.500000
vt 0.625000 0.750000
vt 0.375000 0.750000
vt 0.625000 1.000000
vt 0.375000 1.000000
vt 0.343030 0.531971
vt 0.343030 0.718030
vt 0.343030 0.718030
vt 0.343030 0.531971
vt 0.875000 0.500000
vt 0.875000 0.750000
vt 0.156970 0.531971
vt 0.156971 0.718029
vt 0.125000 0.750000
vt 0.125000 0.500000
vt 0.322909 0.697909
vt 0.177091 0.697909
vt 0.177091 0.697909
vt 0.322909 0.697909
vt 0.156970 0.531971
vt 0.156971 0.718029
vt 0.177091 0.552091
vt 0.322909 0.552091
vt 0.232586 0.572758
vt 0.267414 0.572758
vt 0.267414 0.572758
vt 0.232586 0.572758
vt 0.322909 0.552091
vt 0.177091 0.552091
vt 0.197758 0.572758
vt 0.197758 0.607586
vt 0.197758 0.642414
vt 0.197758 0.677242
vt 0.302242 0.572758
vt 0.302242 0.677242
vt 0.302242 0.642414
vt 0.302242 0.607586
vt 0.232586 0.677242
vt 0.267414 0.677242
vt 0.302242 0.642414
vt 0.302242 0.607586
vt 0.197758 0.677242
vt 0.232586 0.677242
vt 0.197758 0.572758
vt 0.197758 0.607586
vt 0.197758 0.642414
vt 0.267414 0.677242
vt 0.302242 0.677242
vt 0.302242 0.572758
vt 0.375000 0.000000
vt 0.625000 0.000000
vt 0.625000 0.250000
vt 0.375000 0.250000
vt 0.625000 0.500000
vt 0.375000 0.500000
vt 0.625000 0.750000
vt 0.375000 0.750000
vt 0.625000 1.000000
vt 0.375000 1.000000
vt 0.343030 0.531971
vt 0.343030 0.718030
vt 0.343030 0.718030
vt 0.343030 0.531971
vt 0.875000 0.500000
vt 0.875000 0.750000
vt 0.156970 0.531971
vt 0.156971 0.718029
vt 0.125000 0.750000
vt 0.125000 0.500000
vt 0.322909 0.697909
vt 0.177091 0.697909
vt 0.177091 0.697909
vt 0.322909 0.697909
vt 0.156970 0.531971
vt 0.156971 0.718029
vt 0.177091 0.552091
vt 0.322909 0.552091
vt 0.232586 0.572758
vt 0.267414 0.572758
vt 0.322909 0.552091
vt 0.177091 0.552091
vt 0.197758 0.572758
vt 0.197758 0.607586
vt 0.197758 0.642414
vt 0.197758 0.677242
vt 0.302242 0.572758
vt 0.302242 0.677242
vt 0.302242 0.642414
vt 0.302242 0.607586
vt 0.232586 0.677242
vt 0.267414 0.677242
vt 0.375000 0.000000
vt 0.375000 0.250000
vt 0.625000 0.250000
vt 0.625000 0.000000
vt 0.375000 0.500000
vt 0.625000 0.500000
vt 0.375000 0.750000
vt 0.625000 0.750000
vt 0.375000 1.000000
vt 0.625000 1.000000
vt 0.343030 0.531971
vt 0.343030 0.531971
vt 0.343030 0.718030
vt 0.343030 0.718030
vt 0.875000 0.750000
vt 0.875000 0.500000
vt 0.156970 0.531971
vt 0.125000 0.500000
vt 0.125000 0.750000
vt 0.156971 0.718029
vt 0.322909 0.697909
vt 0.322909 0.697909
vt 0.177091 0.697909
vt 0.177091 0.697909
vt 0.156971 0.718029
vt 0.156970 0.531971
vt 0.177091 0.552091
vt 0.322909 0.552091
vt 0.232586 0.572758
vt 0.267414 0.572758
vt 0.177091 0.552091
vt 0.322909 0.552091
vt 0.197758 0.572758
vt 0.197758 0.677242
vt 0.197758 0.642414
vt 0.197758 0.607586
vt 0.302242 0.572758
vt 0.302242 0.677242
vt 0.302242 0.607586
vt 0.302242 0.642414
vt 0.267414 0.677242
vt 0.232586 0.677242
vn -1.0000 0.0000 0.0000
vn 0.0000 0.0000 -1.0000
vn 1.0000 0.0000 0.0000
vn 0.0000 0.0000 1.0000
vn 0.0000 -1.0000 0.0000
vn 0.0000 1.0000 0.0000
vn -0.5257 0.0000 0.8507
vn -0.8507 0.0000 -0.5257
vn -0.8507 0.0000 0.5257
vn -0.5257 0.0000 -0.8507
vn 0.5257 0.0000 0.8507
vn 0.8507 0.0000 0.5257
vn 0.5257 0.0000 -0.8507
vn 0.8507 0.0000 -0.5257
usemtl Material.001
s off
f 10/1/1 9/2/1 4/3/1 2/4/1
f 9/2/2 11/5/2 8/6/2 4/3/2
f 11/5/3 12/7/3 6/8/3 8/6/3
f 12/7/4 10/9/4 2/10/4 6/8/4
f 7/11/3 19/12/3 20/13/3 5/14/3
f 8/6/5 6/8/5 2/15/5 4/16/5
f 3/17/6 9/18/6 10/19/6 1/20/6
f 7/11/6 11/5/6 9/18/6 3/17/6
f 5/14/6 12/7/6 11/5/6 7/11/6
f 1/20/6 10/19/6 12/7/6 5/14/6
f 15/21/4 28/22/4 26/23/4 13/24/4
f 1/20/1 18/25/1 17/26/1 3/17/1
f 5/14/4 20/13/4 18/25/4 1/20/4
f 3/17/2 17/26/2 19/12/2 7/11/2
f 14/27/6 17/26/6 18/25/6 13/24/6
f 16/28/6 19/12/6 17/26/6 14/27/6
f 15/21/6 20/13/6 19/12/6 16/28/6
f 13/24/6 18/25/6 20/13/6 15/21/6
f 30/29/2 114/30/2 113/31/2 29/32/2
f 14/27/2 25/33/2 27/34/2 16/28/2
f 16/28/3 27/34/3 28/22/3 15/21/3
f 13/24/1 26/23/1 25/33/1 14/27/1
f 22/35/6 25/33/6 26/23/6 21/36/6 34/37/6 33/38/6
f 24/39/6 27/34/6 25/33/6 22/35/6 30/29/6 29/32/6
f 23/40/6 28/22/6 27/34/6 24/39/6 36/41/6 35/42/6
f 21/36/6 26/23/6 28/22/6 23/40/6 32/43/6 31/44/6
f 36/41/3 120/45/3 119/46/3 35/42/3
f 31/44/7 115/47/7 112/48/7 21/36/7
f 33/38/8 117/49/8 111/50/8 22/35/8
f 21/36/9 112/48/9 118/51/9 34/37/9
f 22/35/10 111/50/10 114/30/10 30/29/10
f 32/43/4 116/52/4 115/47/4 31/44/4
f 23/40/11 110/53/11 116/52/11 32/43/11
f 35/42/12 119/46/12 110/53/12 23/40/12
f 29/32/13 113/31/13 109/54/13 24/39/13
f 34/37/1 118/51/1 117/49/1 33/38/1
f 24/39/14 109/54/14 120/45/14 36/41/14
f 46/55/3 38/56/3 40/57/3 45/58/3
f 45/58/2 40/57/2 44/59/2 47/60/2
f 47/60/1 44/59/1 42/61/1 48/62/1
f 48/62/4 42/61/4 38/63/4 46/64/4
f 43/65/1 41/66/1 56/67/1 55/68/1
f 44/59/5 40/69/5 38/70/5 42/61/5
f 39/71/6 37/72/6 46/73/6 45/74/6
f 43/65/6 39/71/6 45/74/6 47/60/6
f 41/66/6 43/65/6 47/60/6 48/62/6
f 37/72/6 41/66/6 48/62/6 46/73/6
f 51/75/4 49/76/4 62/77/4 64/78/4
f 37/72/3 39/71/3 53/79/3 54/80/3
f 41/66/4 37/72/4 54/80/4 56/67/4
f 39/71/2 43/65/2 55/68/2 53/79/2
f 50/81/6 49/76/6 54/80/6 53/79/6
f 52/82/6 50/81/6 53/79/6 55/68/6
f 51/75/6 52/82/6 55/68/6 56/67/6
f 49/76/6 51/75/6 56/67/6 54/80/6
f 66/83/2 65/84/2 161/85/2 162/86/2
f 50/81/2 52/82/2 63/87/2 61/88/2
f 52/82/1 51/75/1 64/78/1 63/87/1
f 49/76/3 50/81/3 61/88/3 62/77/3
f 58/89/6 69/90/6 70/91/6 57/92/6 62/77/6 61/88/6
f 60/93/6 65/84/6 66/83/6 58/89/6 61/88/6 63/87/6
f 59/94/6 71/95/6 72/96/6 60/93/6 63/87/6 64/78/6
f 57/92/6 67/97/6 68/98/6 59/94/6 64/78/6 62/77/6
f 72/96/1 71/95/1 167/99/1 168/100/1
f 67/97/11 57/92/11 160/101/11 163/102/11
f 69/90/14 58/89/14 159/103/14 165/104/14
f 57/92/12 70/91/12 166/105/12 160/101/12
f 58/89/13 66/83/13 162/86/13 159/103/13
f 68/98/4 67/97/4 163/102/4 164/106/4
f 59/94/7 68/98/7 164/106/7 158/107/7
f 71/95/9 59/94/9 158/107/9 167/99/9
f 65/84/10 60/93/10 157/108/10 161/85/10
f 70/91/3 69/90/3 165/104/3 166/105/3
f 60/93/8 72/96/8 168/100/8 157/108/8
f 82/109/1 74/110/1 76/111/1 81/112/1
f 81/112/2 76/111/2 80/113/2 83/114/2
f 83/114/3 80/113/3 78/115/3 84/116/3
f 84/116/4 78/115/4 74/117/4 82/118/4
f 79/119/3 77/120/3 92/121/3 91/122/3
f 80/113/6 76/123/6 74/124/6 78/115/6
f 75/125/5 73/126/5 82/127/5 81/128/5
f 79/119/5 75/125/5 81/128/5 83/114/5
f 77/120/5 79/119/5 83/114/5 84/116/5
f 73/126/5 77/120/5 84/116/5 82/127/5
f 87/129/4 85/130/4 98/131/4 100/132/4
f 73/126/1 75/125/1 89/133/1 90/134/1
f 77/120/4 73/126/4 90/134/4 92/121/4
f 75/125/2 79/119/2 91/122/2 89/133/2
f 86/135/5 85/130/5 90/134/5 89/133/5
f 88/136/5 86/135/5 89/133/5 91/122/5
f 87/129/5 88/136/5 91/122/5 92/121/5
f 85/130/5 87/129/5 92/121/5 90/134/5
f 102/137/2 101/138/2 113/31/2 114/30/2
f 86/135/2 88/136/2 99/139/2 97/140/2
f 88/136/3 87/129/3 100/132/3 99/139/3
f 85/130/1 86/135/1 97/140/1 98/131/1
f 94/141/5 105/142/5 106/143/5 93/144/5 98/131/5 97/140/5
f 96/145/5 101/138/5 102/137/5 94/141/5 97/140/5 99/139/5
f 95/146/5 107/147/5 108/148/5 96/145/5 99/139/5 100/132/5
f 93/144/5 103/149/5 104/150/5 95/146/5 100/132/5 98/131/5
f 108/148/3 107/147/3 119/46/3 120/45/3
f 103/149/7 93/144/7 112/48/7 115/47/7
f 105/142/8 94/141/8 111/50/8 117/49/8
f 93/144/9 106/143/9 118/51/9 112/48/9
f 94/141/10 102/137/10 114/30/10 111/50/10
f 104/150/4 103/149/4 115/47/4 116/52/4
f 95/146/11 104/150/11 116/52/11 110/53/11
f 107/147/12 95/146/12 110/53/12 119/46/12
f 101/138/13 96/145/13 109/54/13 113/31/13
f 106/143/1 105/142/1 117/49/1 118/51/1
f 96/145/14 108/148/14 120/45/14 109/54/14
f 130/151/3 129/152/3 124/153/3 122/154/3
f 129/152/2 131/155/2 128/156/2 124/153/2
f 131/155/1 132/157/1 126/158/1 128/156/1
f 132/157/4 130/159/4 122/160/4 126/158/4
f 127/161/1 139/162/1 140/163/1 125/164/1
f 128/156/6 126/158/6 122/165/6 124/166/6
f 123/167/5 129/168/5 130/169/5 121/170/5
f 127/161/5 131/155/5 129/168/5 123/167/5
f 125/164/5 132/157/5 131/155/5 127/161/5
f 121/170/5 130/169/5 132/157/5 125/164/5
f 135/171/4 148/172/4 146/173/4 133/174/4
f 121/170/3 138/175/3 137/176/3 123/167/3
f 125/164/4 140/163/4 138/175/4 121/170/4
f 123/167/2 137/176/2 139/162/2 127/161/2
f 134/177/5 137/176/5 138/175/5 133/174/5
f 136/178/5 139/162/5 137/176/5 134/177/5
f 135/171/5 140/163/5 139/162/5 136/178/5
f 133/174/5 138/175/5 140/163/5 135/171/5
f 150/179/2 162/86/2 161/85/2 149/180/2
f 134/177/2 145/181/2 147/182/2 136/178/2
f 136/178/1 147/182/1 148/172/1 135/171/1
f 133/174/3 146/173/3 145/181/3 134/177/3
f 142/183/5 145/181/5 146/173/5 141/184/5 154/185/5 153/186/5
f 144/187/5 147/182/5 145/181/5 142/183/5 150/179/5 149/180/5
f 143/188/5 148/172/5 147/182/5 144/187/5 156/189/5 155/190/5
f 141/184/5 146/173/5 148/172/5 143/188/5 152/191/5 151/192/5
f 156/189/1 168/100/1 167/99/1 155/190/1
f 151/192/11 163/102/11 160/101/11 141/184/11
f 153/186/14 165/104/14 159/103/14 142/183/14
f 141/184/12 160/101/12 166/105/12 154/185/12
f 142/183/13 159/103/13 162/86/13 150/179/13
f 152/191/4 164/106/4 163/102/4 151/192/4
f 143/188/7 158/107/7 164/106/7 152/191/7
f 155/190/9 167/99/9 158/107/9 143/188/9
f 149/180/10 161/85/10 157/108/10 144/187/10
f 154/185/3 166/105/3 165/104/3 153/186/3
f 144/187/8 157/108/8 168/100/8 156/189/8
