# Blender v2.92.0 OBJ File: 'slashMesh2.blend'
# www.blender.org
mtllib slashMesh2_thick_wide.mtl
o plane_thick_Plane.002
v 2.014824 0.039650 -0.187641
v -0.178154 0.028502 -0.187641
v -1.956100 0.010331 1.183989
v -1.909596 0.010337 1.130486
v -1.873223 0.010333 1.246748
v -1.732967 0.010610 1.357149
v -1.472054 0.012283 1.501913
v -1.181657 0.015179 1.576185
v -0.830908 0.019363 1.587907
v -0.414308 0.024362 1.570136
v 0.039574 0.029093 1.502891
v 0.504554 0.032730 1.356356
v 0.976296 0.034654 1.126888
v 1.404491 0.035427 0.789612
v 1.776258 0.037999 0.334770
v -0.207917 0.026991 0.283109
v -0.210332 0.026180 0.648311
v -0.226875 0.026089 0.937253
v -0.323033 0.025702 1.148587
v -0.523134 0.023602 1.286928
v -0.771487 0.020442 1.364940
v -1.038029 0.017055 1.386811
v -1.230131 0.014685 1.398854
v -1.463506 0.012250 1.362451
v -1.688146 0.010695 1.271659
v -1.831616 0.010337 1.177882
v 1.337320 0.071868 -0.187641
v 0.612562 0.066049 -0.187641
v -1.924847 0.024671 1.145519
v -1.939879 0.024666 1.162282
v 0.509960 0.065307 0.270068
v 1.174355 0.070965 0.293116
v 0.386704 0.063078 0.674491
v 0.932220 0.068754 0.724791
v 0.234625 0.061207 0.993761
v 0.647246 0.066541 1.053799
v -0.001539 0.058373 1.221359
v 0.274008 0.062357 1.290476
v -0.316203 0.052457 1.360557
v -0.128652 0.055760 1.435534
v -0.636719 0.045619 1.434721
v -0.519000 0.047959 1.499973
v -0.956399 0.038409 1.458339
v -0.886961 0.039820 1.522378
v -1.203425 0.032978 1.456629
v -1.186559 0.033284 1.514337
v -1.455094 0.028264 1.409620
v -1.455730 0.028307 1.455422
v -1.698357 0.025267 1.299319
v -1.711501 0.025226 1.327757
v -1.843424 0.024670 1.198140
v -1.855374 0.024663 1.219985
v 2.017446 -0.045205 -0.190631
v -0.175590 -0.052963 -0.180126
v -1.956487 -0.025329 1.182935
v -1.910090 -0.025318 1.129335
v -1.873657 -0.025336 1.245694
v -1.733475 -0.025622 1.356018
v -1.472726 -0.027314 1.500629
v -1.182455 -0.030231 1.574939
v -0.831692 -0.034440 1.586987
v -0.415002 -0.039470 1.569446
v 0.039067 -0.044235 1.502469
v 0.504401 -0.047910 1.358676
v 0.976730 -0.049882 1.126294
v 1.406614 -0.049423 0.779567
v 1.778757 -0.046856 0.330437
v -0.205322 -0.049844 0.292464
v -0.206183 -0.047070 0.665334
v -0.220551 -0.044438 0.964130
v -0.319552 -0.041627 1.163291
v -0.523691 -0.038631 1.287100
v -0.772467 -0.035459 1.363809
v -1.039006 -0.032061 1.385584
v -1.231073 -0.029682 1.397512
v -1.464336 -0.027238 1.361071
v -1.688823 -0.025678 1.270317
v -1.832157 -0.025319 1.176732
v 1.339935 -0.081200 -0.188714
v 0.615148 -0.087004 -0.182503
v -1.925510 -0.039578 1.144388
v -1.940491 -0.039583 1.161208
v 0.512191 -0.085360 0.274995
v 1.176492 -0.082108 0.289780
v 0.388681 -0.082768 0.684191
v 0.933330 -0.083798 0.724389
v 0.237004 -0.078838 1.010113
v 0.647732 -0.082146 1.059435
v 0.000811 -0.073459 1.235776
v 0.274310 -0.077382 1.296227
v -0.315687 -0.067407 1.365867
v -0.129521 -0.070761 1.435515
v -0.638057 -0.060553 1.433724
v -0.520211 -0.062938 1.499129
v -0.957739 -0.053337 1.457169
v -0.888226 -0.054785 1.521304
v -1.204678 -0.047901 1.455345
v -1.187735 -0.048239 1.513110
v -1.456177 -0.043182 1.408259
v -1.456738 -0.043251 1.454119
v -1.699214 -0.040182 1.298072
v -1.712299 -0.040157 1.326550
v -1.844159 -0.039580 1.196990
v -1.856061 -0.039586 1.218873
v 2.043994 0.011461 -0.218522
v 2.044913 -0.016824 -0.219207
v -0.194996 0.001220 -0.251633
v -0.194133 -0.026071 -0.249142
v -1.970863 -0.001544 1.184959
v -1.970987 -0.013456 1.184606
v -1.927816 -0.001505 1.048308
v -1.927993 -0.013459 1.047924
v -1.859883 -0.001525 1.327098
v -1.860012 -0.013495 1.326746
v -1.716636 -0.001392 1.437714
v -1.716789 -0.013641 1.437337
v -1.450581 -0.000786 1.582972
v -1.450787 -0.014269 1.582544
v -1.155982 0.000179 1.657528
v -1.156230 -0.015258 1.657113
v -0.803897 0.001545 1.669399
v -0.804143 -0.016647 1.669092
v -0.390446 0.003172 1.651679
v -0.390664 -0.018300 1.651449
v 0.057310 0.004713 1.584383
v 0.057150 -0.019850 1.584242
v 0.515232 0.005891 1.438370
v 0.515188 -0.021039 1.439143
v 0.981100 0.006448 1.206782
v 0.981247 -0.021736 1.206583
v 1.408069 0.007068 0.862986
v 1.408752 -0.021215 0.859635
v 1.787175 0.009694 0.401090
v 1.787879 -0.018591 0.399686
v -0.238061 0.001203 0.256108
v -0.237216 -0.024389 0.259239
v -0.240813 0.001528 0.611312
v -0.239449 -0.022864 0.617021
v -0.255735 0.002286 0.881168
v -0.253658 -0.021212 0.890156
v -0.349884 0.003064 1.074872
v -0.348761 -0.019371 1.079799
v -0.551572 0.002796 1.205726
v -0.551772 -0.017913 1.205785
v -0.801663 0.001783 1.282852
v -0.802002 -0.016782 1.282475
v -1.069049 0.000652 1.304614
v -1.069388 -0.015633 1.304205
v -1.260159 -0.000143 1.316612
v -1.260486 -0.014830 1.316165
v -1.490288 -0.000943 1.280326
v -1.490578 -0.014023 1.279866
v -1.710083 -0.001424 1.189891
v -1.710322 -0.013539 1.189444
v -1.850043 -0.001502 1.096356
v -1.850236 -0.013462 1.095972
v 1.338159 0.020845 -0.269797
v 1.339031 -0.030178 -0.270155
v 0.613393 0.014900 -0.267724
v 0.614255 -0.036121 -0.266012
v -1.944036 0.003318 1.064243
v -1.944276 -0.018196 1.063866
v -1.958512 0.003304 1.081367
v -1.958735 -0.018193 1.081009
vt 0.666667 0.916667
vt 1.000000 0.916667
vt 1.000000 1.000000
vt 0.666667 1.000000
vt 0.666667 0.000000
vt 1.000000 0.000000
vt 1.000000 0.083333
vt 0.666667 0.083333
vt 1.000000 0.166667
vt 0.666667 0.166667
vt 1.000000 0.250000
vt 0.666667 0.250000
vt 1.000000 0.333333
vt 0.666667 0.333333
vt 1.000000 0.416667
vt 0.666667 0.416667
vt 1.000000 0.500000
vt 0.666667 0.500000
vt 1.000000 0.583333
vt 0.666667 0.583333
vt 1.000000 0.666667
vt 0.666667 0.666667
vt 1.000000 0.750000
vt 0.666667 0.750000
vt 1.000000 0.833333
vt 0.666667 0.833333
vt 0.000000 0.833333
vt 0.333333 0.833333
vt 0.333333 0.916667
vt 0.000000 0.916667
vt 0.000000 0.750000
vt 0.333333 0.750000
vt 0.000000 0.666667
vt 0.333333 0.666667
vt 0.000000 0.583333
vt 0.333333 0.583333
vt 0.000000 0.500000
vt 0.333333 0.500000
vt 0.000000 0.416667
vt 0.333333 0.416667
vt 0.000000 0.333333
vt 0.333333 0.333333
vt 0.000000 0.250000
vt 0.333333 0.250000
vt 0.000000 0.166667
vt 0.333333 0.166667
vt 0.000000 0.083333
vt 0.333333 0.083333
vt 0.000000 0.000000
vt 0.333333 0.000000
vt 0.333333 1.000000
vt 0.000000 1.000000
vt 0.666667 0.916667
vt 0.666667 1.000000
vt 1.000000 1.000000
vt 1.000000 0.916667
vt 0.666667 0.000000
vt 0.666667 0.083333
vt 1.000000 0.083333
vt 1.000000 0.000000
vt 0.666667 0.166667
vt 1.000000 0.166667
vt 0.666667 0.250000
vt 1.000000 0.250000
vt 0.666667 0.333333
vt 1.000000 0.333333
vt 0.666667 0.416667
vt 1.000000 0.416667
vt 0.666667 0.500000
vt 1.000000 0.500000
vt 0.666667 0.583333
vt 1.000000 0.583333
vt 0.666667 0.666667
vt 1.000000 0.666667
vt 0.666667 0.750000
vt 1.000000 0.750000
vt 0.666667 0.833333
vt 1.000000 0.833333
vt 0.000000 0.833333
vt 0.000000 0.916667
vt 0.333333 0.916667
vt 0.333333 0.833333
vt 0.000000 0.750000
vt 0.333333 0.750000
vt 0.000000 0.666667
vt 0.333333 0.666667
vt 0.000000 0.583333
vt 0.333333 0.583333
vt 0.000000 0.500000
vt 0.333333 0.500000
vt 0.000000 0.416667
vt 0.333333 0.416667
vt 0.000000 0.333333
vt 0.333333 0.333333
vt 0.000000 0.250000
vt 0.333333 0.250000
vt 0.000000 0.166667
vt 0.333333 0.166667
vt 0.000000 0.083333
vt 0.333333 0.083333
vt 0.000000 0.000000
vt 0.333333 0.000000
vt 0.000000 1.000000
vt 0.333333 1.000000
vt 0.000000 0.000000
vt 0.000000 0.083333
vt 1.000000 0.000000
vt 0.666667 0.000000
vt 1.000000 1.000000
vt 1.000000 0.916667
vt 0.000000 1.000000
vt 0.333333 1.000000
vt 0.000000 0.916667
vt 0.000000 0.833333
vt 0.000000 0.750000
vt 0.000000 0.666667
vt 0.000000 0.583333
vt 0.000000 0.500000
vt 0.000000 0.416667
vt 0.000000 0.333333
vt 0.000000 0.250000
vt 0.000000 0.166667
vt 1.000000 0.083333
vt 1.000000 0.166667
vt 1.000000 0.250000
vt 1.000000 0.333333
vt 1.000000 0.416667
vt 1.000000 0.500000
vt 1.000000 0.583333
vt 1.000000 0.666667
vt 1.000000 0.750000
vt 1.000000 0.833333
vt 0.333333 0.000000
vt 0.666667 1.000000
vt 0.666667 1.000000
vt 0.333333 1.000000
vt 1.000000 1.000000
vt 0.333333 0.000000
vt 0.666667 0.000000
vt 0.000000 0.000000
vt 1.000000 0.833333
vt 1.000000 0.916667
vt 1.000000 0.750000
vt 1.000000 0.666667
vt 1.000000 0.583333
vt 1.000000 0.500000
vt 1.000000 0.416667
vt 1.000000 0.333333
vt 1.000000 0.250000
vt 1.000000 0.166667
vt 1.000000 0.083333
vt 1.000000 0.000000
vt 0.000000 0.166667
vt 0.000000 0.083333
vt 0.000000 0.250000
vt 0.000000 0.333333
vt 0.000000 0.416667
vt 0.000000 0.500000
vt 0.000000 0.583333
vt 0.000000 0.666667
vt 0.000000 0.750000
vt 0.000000 0.833333
vt 0.000000 0.916667
vt 0.000000 1.000000
vn 0.2889 0.8394 -0.4604
vn -0.0503 0.9987 -0.0047
vn -0.0571 0.9984 -0.0054
vn -0.0667 0.9977 -0.0153
vn -0.0777 0.9956 -0.0515
vn -0.0813 0.9892 -0.1222
vn -0.0706 0.9773 -0.1999
vn -0.0376 0.9649 -0.2601
vn -0.0235 0.9612 -0.2750
vn 0.0416 0.9455 -0.3230
vn 0.1505 0.9164 -0.3709
vn 0.2697 0.8743 -0.4035
vn -0.2389 0.9211 0.3075
vn -0.0035 1.0000 -0.0008
vn -0.1654 0.9403 0.2973
vn -0.0112 0.9999 -0.0021
vn -0.0828 0.9530 0.2915
vn -0.0185 0.9998 -0.0005
vn -0.0248 0.9534 0.3005
vn -0.0219 0.9998 0.0014
vn -0.0001 0.9511 0.3089
vn -0.0221 0.9998 0.0030
vn 0.0308 0.9569 0.2886
vn -0.0200 0.9998 0.0032
vn 0.0632 0.9730 0.2221
vn -0.0165 0.9999 0.0024
vn 0.0726 0.9868 0.1445
vn -0.0131 0.9999 -0.0021
vn 0.0677 0.9947 0.0769
vn -0.0113 0.9999 -0.0013
vn 0.0571 0.9974 0.0449
vn -0.0094 1.0000 0.0012
vn 0.0501 0.9985 0.0226
vn -0.0083 1.0000 -0.0006
vn -0.2544 0.9002 0.3535
vn -0.0001 1.0000 0.0002
vn 0.2870 -0.8418 -0.4571
vn -0.0461 -0.9989 -0.0015
vn -0.0542 -0.9985 -0.0018
vn -0.0660 -0.9978 -0.0071
vn -0.0783 -0.9960 -0.0426
vn -0.0779 -0.9892 -0.1244
vn -0.0675 -0.9777 -0.1988
vn -0.0375 -0.9651 -0.2592
vn -0.0234 -0.9615 -0.2739
vn 0.0414 -0.9460 -0.3214
vn 0.1494 -0.9176 -0.3684
vn 0.2674 -0.8765 -0.4004
vn -0.2384 -0.9214 0.3069
vn -0.0032 -1.0000 -0.0012
vn -0.1650 -0.9407 0.2965
vn -0.0110 -0.9999 -0.0026
vn -0.0827 -0.9533 0.2905
vn -0.0184 -0.9998 -0.0010
vn -0.0251 -0.9539 0.2991
vn -0.0219 -0.9998 0.0009
vn -0.0004 -0.9517 0.3071
vn -0.0222 -0.9998 0.0025
vn 0.0303 -0.9571 0.2882
vn -0.0201 -0.9998 0.0027
vn 0.0626 -0.9717 0.2276
vn -0.0166 -0.9999 0.0027
vn 0.0745 -0.9861 0.1485
vn -0.0116 -0.9999 0.0066
vn 0.0710 -0.9946 0.0763
vn -0.0050 -1.0000 0.0051
vn 0.0612 -0.9974 0.0378
vn 0.0018 -1.0000 0.0018
vn 0.0550 -0.9983 0.0196
vn 0.0065 -1.0000 0.0026
vn -0.2541 -0.9005 0.3529
vn 0.0001 -1.0000 -0.0002
vn 0.6899 -0.6597 0.2981
vn -0.0300 -0.8920 -0.4510
vn 0.1018 -0.9809 -0.1660
vn -0.6666 -0.7445 -0.0374
vn -0.2773 -0.9243 0.2621
vn -0.1325 -0.9768 0.1681
vn -0.1000 -0.9797 0.1739
vn -0.0532 -0.9816 0.1832
vn -0.0146 -0.9796 0.2002
vn 0.0019 -0.9731 0.2304
vn 0.0319 -0.9650 0.2602
vn 0.0846 -0.9544 0.2865
vn 0.1496 -0.9398 0.3074
vn 0.2530 -0.9160 0.3114
vn 0.3732 -0.8767 0.3034
vn -0.6726 -0.7385 -0.0463
vn -0.6078 -0.7941 0.0021
vn -0.5548 -0.8317 -0.0215
vn -0.3152 -0.9377 -0.1461
vn -0.1365 -0.9691 -0.2052
vn -0.0730 -0.9749 -0.2103
vn -0.0248 -0.9791 -0.2021
vn -0.0195 -0.9831 -0.1818
vn 0.0209 -0.9840 -0.1770
vn 0.0661 -0.9827 -0.1732
vn 0.1126 -0.9785 -0.1728
vn 0.0495 -0.8155 -0.5766
vn 0.0031 -0.8507 -0.5256
vn 0.2998 -0.9189 -0.2565
vn -0.2309 -0.9521 -0.2002
vn -0.2279 0.9533 -0.1979
vn -0.7639 0.0192 -0.6450
vn 0.3060 0.9169 -0.2562
vn -0.6999 0.0249 -0.7138
vn -0.0076 0.8461 -0.5329
vn -0.0042 -0.0133 -0.9999
vn 0.0457 0.8237 -0.5651
vn 0.0722 0.0147 -0.9973
vn 0.1116 0.9789 -0.1712
vn 0.5555 0.0187 -0.8313
vn 0.0653 0.9831 -0.1712
vn 0.3804 0.0253 -0.9245
vn 0.0206 0.9844 -0.1749
vn 0.1557 0.0288 -0.9874
vn -0.0194 0.9835 -0.1796
vn -0.0625 0.0289 -0.9976
vn -0.0246 0.9795 -0.1999
vn -0.0810 0.0240 -0.9964
vn -0.0733 0.9751 -0.2093
vn -0.2938 0.0118 -0.9558
vn -0.1508 0.9645 -0.2166
vn -0.5329 -0.1084 -0.8392
vn -0.3634 0.9157 -0.1716
vn -0.8804 -0.1926 -0.4333
vn -0.5989 0.8001 -0.0347
vn -0.9947 -0.0877 -0.0530
vn -0.6370 0.7708 -0.0040
vn -0.9989 -0.0454 -0.0069
vn -0.7026 0.7098 -0.0512
vn -0.9956 -0.0411 -0.0843
vn 0.3775 0.8711 0.3142
vn 0.7720 -0.0344 0.6347
vn 0.2553 0.9115 0.3224
vn 0.6282 -0.0396 0.7770
vn 0.1478 0.9406 0.3056
vn 0.4458 0.0102 0.8951
vn 0.0852 0.9549 0.2843
vn 0.3029 0.0105 0.9530
vn 0.0323 0.9647 0.2614
vn 0.1485 -0.0092 0.9889
vn 0.0022 0.9727 0.2321
vn 0.0427 -0.0140 0.9990
vn -0.0145 0.9793 0.2021
vn -0.0338 -0.0210 0.9992
vn -0.0536 0.9812 0.1852
vn -0.2453 -0.0244 0.9691
vn -0.1008 0.9793 0.1755
vn -0.4791 -0.0208 0.8775
vn -0.1335 0.9765 0.1694
vn -0.6111 -0.0167 0.7914
vn -0.2796 0.9230 0.2645
vn -0.7882 -0.0098 0.6154
vn -0.6606 0.7499 -0.0358
vn -0.9929 0.0128 -0.1179
vn 0.1008 0.9812 -0.1645
vn 0.5255 0.0191 -0.8506
vn -0.0330 0.8793 -0.4750
vn -0.0202 -0.0540 -0.9983
vn 0.6807 0.6695 0.2973
vn 0.9236 0.0123 0.3832
usemtl None
s off
f 51/1/1 26/2/1 4/3/1 29/4/1
f 28/5/2 2/6/2 16/7/2 31/8/2
f 31/8/3 16/7/3 17/9/3 33/10/3
f 33/10/4 17/9/4 18/11/4 35/12/4
f 35/12/5 18/11/5 19/13/5 37/14/5
f 37/14/6 19/13/6 20/15/6 39/16/6
f 39/16/7 20/15/7 21/17/7 41/18/7
f 41/18/8 21/17/8 22/19/8 43/20/8
f 43/20/9 22/19/9 23/21/9 45/22/9
f 45/22/10 23/21/10 24/23/10 47/24/10
f 47/24/11 24/23/11 25/25/11 49/26/11
f 49/26/12 25/25/12 26/2/12 51/1/12
f 6/27/13 50/28/13 52/29/13 5/30/13
f 50/28/14 49/26/14 51/1/14 52/29/14
f 7/31/15 48/32/15 50/28/15 6/27/15
f 48/32/16 47/24/16 49/26/16 50/28/16
f 8/33/17 46/34/17 48/32/17 7/31/17
f 46/34/18 45/22/18 47/24/18 48/32/18
f 9/35/19 44/36/19 46/34/19 8/33/19
f 44/36/20 43/20/20 45/22/20 46/34/20
f 10/37/21 42/38/21 44/36/21 9/35/21
f 42/38/22 41/18/22 43/20/22 44/36/22
f 11/39/23 40/40/23 42/38/23 10/37/23
f 40/40/24 39/16/24 41/18/24 42/38/24
f 12/41/25 38/42/25 40/40/25 11/39/25
f 38/42/26 37/14/26 39/16/26 40/40/26
f 13/43/27 36/44/27 38/42/27 12/41/27
f 36/44/28 35/12/28 37/14/28 38/42/28
f 14/45/29 34/46/29 36/44/29 13/43/29
f 34/46/30 33/10/30 35/12/30 36/44/30
f 15/47/31 32/48/31 34/46/31 14/45/31
f 32/48/32 31/8/32 33/10/32 34/46/32
f 1/49/33 27/50/33 32/48/33 15/47/33
f 27/50/34 28/5/34 31/8/34 32/48/34
f 5/30/35 52/29/35 30/51/35 3/52/35
f 52/29/36 51/1/36 29/4/36 30/51/36
f 103/53/37 81/54/37 56/55/37 78/56/37
f 80/57/38 83/58/38 68/59/38 54/60/38
f 83/58/39 85/61/39 69/62/39 68/59/39
f 85/61/40 87/63/40 70/64/40 69/62/40
f 87/63/41 89/65/41 71/66/41 70/64/41
f 89/65/42 91/67/42 72/68/42 71/66/42
f 91/67/43 93/69/43 73/70/43 72/68/43
f 93/69/44 95/71/44 74/72/44 73/70/44
f 95/71/45 97/73/45 75/74/45 74/72/45
f 97/73/46 99/75/46 76/76/46 75/74/46
f 99/75/47 101/77/47 77/78/47 76/76/47
f 101/77/48 103/53/48 78/56/48 77/78/48
f 58/79/49 57/80/49 104/81/49 102/82/49
f 102/82/50 104/81/50 103/53/50 101/77/50
f 59/83/51 58/79/51 102/82/51 100/84/51
f 100/84/52 102/82/52 101/77/52 99/75/52
f 60/85/53 59/83/53 100/84/53 98/86/53
f 98/86/54 100/84/54 99/75/54 97/73/54
f 61/87/55 60/85/55 98/86/55 96/88/55
f 96/88/56 98/86/56 97/73/56 95/71/56
f 62/89/57 61/87/57 96/88/57 94/90/57
f 94/90/58 96/88/58 95/71/58 93/69/58
f 63/91/59 62/89/59 94/90/59 92/92/59
f 92/92/60 94/90/60 93/69/60 91/67/60
f 64/93/61 63/91/61 92/92/61 90/94/61
f 90/94/62 92/92/62 91/67/62 89/65/62
f 65/95/63 64/93/63 90/94/63 88/96/63
f 88/96/64 90/94/64 89/65/64 87/63/64
f 66/97/65 65/95/65 88/96/65 86/98/65
f 86/98/66 88/96/66 87/63/66 85/61/66
f 67/99/67 66/97/67 86/98/67 84/100/67
f 84/100/68 86/98/68 85/61/68 83/58/68
f 53/101/69 67/99/69 84/100/69 79/102/69
f 79/102/70 84/100/70 83/58/70 80/57/70
f 57/80/71 55/103/71 82/104/71 104/81/71
f 104/81/72 82/104/72 81/54/72 103/53/72
f 106/105/73 134/106/73 67/99/73 53/101/73
f 108/107/74 160/108/74 80/57/74 54/60/74
f 112/109/75 156/110/75 78/56/75 56/55/75
f 110/111/76 164/112/76 82/104/76 55/103/76
f 114/113/77 110/111/77 55/103/77 57/80/77
f 116/114/78 114/113/78 57/80/78 58/79/78
f 118/115/79 116/114/79 58/79/79 59/83/79
f 120/116/80 118/115/80 59/83/80 60/85/80
f 122/117/81 120/116/81 60/85/81 61/87/81
f 124/118/82 122/117/82 61/87/82 62/89/82
f 126/119/83 124/118/83 62/89/83 63/91/83
f 128/120/84 126/119/84 63/91/84 64/93/84
f 130/121/85 128/120/85 64/93/85 65/95/85
f 132/122/86 130/121/86 65/95/86 66/97/86
f 134/106/87 132/122/87 66/97/87 67/99/87
f 136/123/88 108/107/88 54/60/88 68/59/88
f 138/124/89 136/123/89 68/59/89 69/62/89
f 140/125/90 138/124/90 69/62/90 70/64/90
f 142/126/91 140/125/91 70/64/91 71/66/91
f 144/127/92 142/126/92 71/66/92 72/68/92
f 146/128/93 144/127/93 72/68/93 73/70/93
f 148/129/94 146/128/94 73/70/94 74/72/94
f 150/130/95 148/129/95 74/72/95 75/74/95
f 152/131/96 150/130/96 75/74/96 76/76/96
f 154/132/97 152/131/97 76/76/97 77/78/97
f 156/110/98 154/132/98 77/78/98 78/56/98
f 158/133/99 106/105/99 53/101/99 79/102/99
f 160/108/100 158/133/100 79/102/100 80/57/100
f 162/134/101 112/109/101 56/55/101 81/54/101
f 164/112/102 162/134/102 81/54/102 82/104/102
f 30/51/103 29/4/103 161/135/103 163/136/103
f 163/136/104 161/135/104 162/134/104 164/112/104
f 29/4/105 4/3/105 111/137/105 161/135/105
f 161/135/106 111/137/106 112/109/106 162/134/106
f 28/5/107 27/50/107 157/138/107 159/139/107
f 159/139/108 157/138/108 158/133/108 160/108/108
f 27/50/109 1/49/109 105/140/109 157/138/109
f 157/138/110 105/140/110 106/105/110 158/133/110
f 26/2/111 25/25/111 153/141/111 155/142/111
f 155/142/112 153/141/112 154/132/112 156/110/112
f 25/25/113 24/23/113 151/143/113 153/141/113
f 153/141/114 151/143/114 152/131/114 154/132/114
f 24/23/115 23/21/115 149/144/115 151/143/115
f 151/143/116 149/144/116 150/130/116 152/131/116
f 23/21/117 22/19/117 147/145/117 149/144/117
f 149/144/118 147/145/118 148/129/118 150/130/118
f 22/19/119 21/17/119 145/146/119 147/145/119
f 147/145/120 145/146/120 146/128/120 148/129/120
f 21/17/121 20/15/121 143/147/121 145/146/121
f 145/146/122 143/147/122 144/127/122 146/128/122
f 20/15/123 19/13/123 141/148/123 143/147/123
f 143/147/124 141/148/124 142/126/124 144/127/124
f 19/13/125 18/11/125 139/149/125 141/148/125
f 141/148/126 139/149/126 140/125/126 142/126/126
f 18/11/127 17/9/127 137/150/127 139/149/127
f 139/149/128 137/150/128 138/124/128 140/125/128
f 17/9/129 16/7/129 135/151/129 137/150/129
f 137/150/130 135/151/130 136/123/130 138/124/130
f 16/7/131 2/6/131 107/152/131 135/151/131
f 135/151/132 107/152/132 108/107/132 136/123/132
f 15/47/133 14/45/133 131/153/133 133/154/133
f 133/154/134 131/153/134 132/122/134 134/106/134
f 14/45/135 13/43/135 129/155/135 131/153/135
f 131/153/136 129/155/136 130/121/136 132/122/136
f 13/43/137 12/41/137 127/156/137 129/155/137
f 129/155/138 127/156/138 128/120/138 130/121/138
f 12/41/139 11/39/139 125/157/139 127/156/139
f 127/156/140 125/157/140 126/119/140 128/120/140
f 11/39/141 10/37/141 123/158/141 125/157/141
f 125/157/142 123/158/142 124/118/142 126/119/142
f 10/37/143 9/35/143 121/159/143 123/158/143
f 123/158/144 121/159/144 122/117/144 124/118/144
f 9/35/145 8/33/145 119/160/145 121/159/145
f 121/159/146 119/160/146 120/116/146 122/117/146
f 8/33/147 7/31/147 117/161/147 119/160/147
f 119/160/148 117/161/148 118/115/148 120/116/148
f 7/31/149 6/27/149 115/162/149 117/161/149
f 117/161/150 115/162/150 116/114/150 118/115/150
f 6/27/151 5/30/151 113/163/151 115/162/151
f 115/162/152 113/163/152 114/113/152 116/114/152
f 5/30/153 3/52/153 109/164/153 113/163/153
f 113/163/154 109/164/154 110/111/154 114/113/154
f 3/52/155 30/51/155 163/136/155 109/164/155
f 109/164/156 163/136/156 164/112/156 110/111/156
f 4/3/157 26/2/157 155/142/157 111/137/157
f 111/137/158 155/142/158 156/110/158 112/109/158
f 2/6/159 28/5/159 159/139/159 107/152/159
f 107/152/160 159/139/160 160/108/160 108/107/160
f 1/49/161 15/47/161 133/154/161 105/140/161
f 105/140/162 133/154/162 134/106/162 106/105/162
