# Blender v2.92.0 OBJ File: 'slashMesh2.blend'
# www.blender.org
mtllib slashMesh2_thick.mtl
o plane_thick_Plane.002
v 1.646827 0.039650 -0.187641
v 0.211201 0.028502 -0.187641
v -1.897345 0.010331 1.183989
v -1.818069 0.010337 1.130486
v -1.801532 0.010333 1.246748
v -1.645049 0.010610 1.357149
v -1.352259 0.012283 1.501913
v -1.022628 0.015179 1.576185
v -0.637409 0.019363 1.587907
v -0.225178 0.024362 1.570136
v 0.186623 0.029093 1.502891
v 0.587589 0.032730 1.356356
v 0.970234 0.034654 1.126888
v 1.278332 0.035427 0.789612
v 1.508819 0.037999 0.334770
v 0.172123 0.026991 0.283109
v 0.131589 0.026180 0.648311
v 0.074939 0.026089 0.937253
v -0.041978 0.025702 1.148587
v -0.245185 0.023602 1.286928
v -0.499035 0.020442 1.364940
v -0.781961 0.017055 1.386811
v -1.006868 0.014685 1.398854
v -1.284433 0.012250 1.362451
v -1.552759 0.010695 1.271659
v -1.721825 0.010337 1.177882
v 1.203301 0.071868 -0.187641
v 0.728840 0.066049 -0.187641
v -1.844374 0.024671 1.145519
v -1.869922 0.024666 1.162282
v 0.654479 0.065307 0.270068
v 1.100740 0.070965 0.293116
v 0.549662 0.063078 0.674491
v 0.937040 0.068754 0.724791
v 0.410799 0.061207 0.993761
v 0.719559 0.066541 1.053799
v 0.200294 0.058373 1.221359
v 0.407655 0.062357 1.290476
v -0.085159 0.052457 1.360557
v 0.057397 0.055760 1.435534
v -0.393068 0.045619 1.434721
v -0.302560 0.047959 1.499973
v -0.722278 0.038409 1.458339
v -0.672776 0.039820 1.522378
v -1.000023 0.032978 1.456629
v -1.003958 0.033284 1.514337
v -1.293857 0.028264 1.409620
v -1.313459 0.028307 1.455422
v -1.577875 0.025267 1.299319
v -1.606281 0.025226 1.327757
v -1.745711 0.024670 1.198140
v -1.769380 0.024663 1.219985
v 1.648544 -0.045205 -0.190631
v 0.212880 -0.052963 -0.180126
v -1.897322 -0.025329 1.182935
v -1.818041 -0.025318 1.129335
v -1.801509 -0.025336 1.245694
v -1.645021 -0.025622 1.356018
v -1.352236 -0.027314 1.500629
v -1.022619 -0.030231 1.574939
v -0.637409 -0.034440 1.586987
v -0.225183 -0.039470 1.569446
v 0.186609 -0.044235 1.502469
v 0.587612 -0.047910 1.358676
v 0.970551 -0.049882 1.126294
v 1.279320 -0.049423 0.779567
v 1.510428 -0.046856 0.330437
v 0.173676 -0.049844 0.292464
v 0.132774 -0.047070 0.665334
v 0.075512 -0.044438 0.964130
v -0.041871 -0.041627 1.163291
v -0.245190 -0.038631 1.287100
v -0.499040 -0.035459 1.363809
v -0.781961 -0.032061 1.385584
v -1.006863 -0.029682 1.397512
v -1.284419 -0.027238 1.361071
v -1.552731 -0.025678 1.270317
v -1.721788 -0.025319 1.176732
v 1.205013 -0.081200 -0.188714
v 0.730533 -0.087004 -0.182503
v -1.844346 -0.039578 1.144388
v -1.869899 -0.039583 1.161208
v 0.655981 -0.085361 0.274995
v 1.102144 -0.082108 0.289780
v 0.550758 -0.082768 0.684191
v 0.937846 -0.083798 0.724389
v 0.411382 -0.078838 1.010113
v 0.719904 -0.082146 1.059435
v 0.200485 -0.073459 1.235776
v 0.407725 -0.077382 1.296227
v -0.085140 -0.067407 1.365867
v 0.057393 -0.070761 1.435515
v -0.393077 -0.060553 1.433724
v -0.302564 -0.062938 1.499129
v -0.722278 -0.053337 1.457169
v -0.672776 -0.054785 1.521304
v -1.000023 -0.047901 1.455345
v -1.003953 -0.048239 1.513110
v -1.293838 -0.043182 1.408259
v -1.313440 -0.043251 1.454119
v -1.577842 -0.040182 1.298072
v -1.606253 -0.040157 1.326550
v -1.745678 -0.039580 1.196990
v -1.769352 -0.039586 1.218873
v 1.665923 0.011461 -0.218522
v 1.666525 -0.016824 -0.219207
v 0.200175 0.001220 -0.251633
v 0.200740 -0.026071 -0.249142
v -1.917235 -0.001544 1.184959
v -1.917228 -0.013456 1.184606
v -1.818249 -0.001505 1.048308
v -1.818240 -0.013459 1.047924
v -1.804773 -0.001525 1.327098
v -1.804765 -0.013495 1.326746
v -1.647911 -0.001392 1.437714
v -1.647901 -0.013641 1.437337
v -1.353984 -0.000786 1.582972
v -1.353977 -0.014269 1.582544
v -1.023245 0.000179 1.657528
v -1.023242 -0.015258 1.657113
v -0.637380 0.001545 1.669399
v -0.637380 -0.016647 1.669092
v -0.224682 0.003172 1.651679
v -0.224683 -0.018300 1.651449
v 0.187885 0.004713 1.584383
v 0.187881 -0.019850 1.584242
v 0.589916 0.005891 1.438370
v 0.589923 -0.021039 1.439143
v 0.974382 0.006448 1.206782
v 0.974489 -0.021736 1.206583
v 1.285561 0.007068 0.862986
v 1.285892 -0.021215 0.859635
v 1.520501 0.009694 0.401090
v 1.521023 -0.018591 0.399686
v 0.154141 0.001203 0.256108
v 0.154658 -0.024389 0.259239
v 0.115012 0.001528 0.611312
v 0.115402 -0.022864 0.617021
v 0.063077 0.002286 0.881168
v 0.063260 -0.021212 0.890156
v -0.047422 0.003064 1.074872
v -0.047407 -0.019371 1.079799
v -0.247465 0.002796 1.205726
v -0.247469 -0.017913 1.205785
v -0.499959 0.001783 1.282852
v -0.499961 -0.016782 1.282475
v -0.782277 0.000652 1.304614
v -0.782277 -0.015633 1.304205
v -1.006678 -0.000143 1.316612
v -1.006676 -0.014830 1.316165
v -1.283294 -0.000943 1.280326
v -1.283290 -0.014023 1.279866
v -1.550604 -0.001424 1.189891
v -1.550594 -0.013539 1.189444
v -1.719300 -0.001502 1.096356
v -1.719287 -0.013462 1.095972
v 1.203851 0.020845 -0.269797
v 1.204421 -0.030178 -0.270155
v 0.729385 0.014900 -0.267724
v 0.729949 -0.036121 -0.266012
v -1.847306 0.003318 1.064243
v -1.847297 -0.018196 1.063866
v -1.873368 0.003304 1.081367
v -1.873360 -0.018193 1.081009
vt 0.666667 0.916667
vt 1.000000 0.916667
vt 1.000000 1.000000
vt 0.666667 1.000000
vt 0.666667 0.000000
vt 1.000000 0.000000
vt 1.000000 0.083333
vt 0.666667 0.083333
vt 1.000000 0.166667
vt 0.666667 0.166667
vt 1.000000 0.250000
vt 0.666667 0.250000
vt 1.000000 0.333333
vt 0.666667 0.333333
vt 1.000000 0.416667
vt 0.666667 0.416667
vt 1.000000 0.500000
vt 0.666667 0.500000
vt 1.000000 0.583333
vt 0.666667 0.583333
vt 1.000000 0.666667
vt 0.666667 0.666667
vt 1.000000 0.750000
vt 0.666667 0.750000
vt 1.000000 0.833333
vt 0.666667 0.833333
vt 0.000000 0.833333
vt 0.333333 0.833333
vt 0.333333 0.916667
vt 0.000000 0.916667
vt 0.000000 0.750000
vt 0.333333 0.750000
vt 0.000000 0.666667
vt 0.333333 0.666667
vt 0.000000 0.583333
vt 0.333333 0.583333
vt 0.000000 0.500000
vt 0.333333 0.500000
vt 0.000000 0.416667
vt 0.333333 0.416667
vt 0.000000 0.333333
vt 0.333333 0.333333
vt 0.000000 0.250000
vt 0.333333 0.250000
vt 0.000000 0.166667
vt 0.333333 0.166667
vt 0.000000 0.083333
vt 0.333333 0.083333
vt 0.000000 0.000000
vt 0.333333 0.000000
vt 0.333333 1.000000
vt 0.000000 1.000000
vt 0.666667 0.916667
vt 0.666667 1.000000
vt 1.000000 1.000000
vt 1.000000 0.916667
vt 0.666667 0.000000
vt 0.666667 0.083333
vt 1.000000 0.083333
vt 1.000000 0.000000
vt 0.666667 0.166667
vt 1.000000 0.166667
vt 0.666667 0.250000
vt 1.000000 0.250000
vt 0.666667 0.333333
vt 1.000000 0.333333
vt 0.666667 0.416667
vt 1.000000 0.416667
vt 0.666667 0.500000
vt 1.000000 0.500000
vt 0.666667 0.583333
vt 1.000000 0.583333
vt 0.666667 0.666667
vt 1.000000 0.666667
vt 0.666667 0.750000
vt 1.000000 0.750000
vt 0.666667 0.833333
vt 1.000000 0.833333
vt 0.000000 0.833333
vt 0.000000 0.916667
vt 0.333333 0.916667
vt 0.333333 0.833333
vt 0.000000 0.750000
vt 0.333333 0.750000
vt 0.000000 0.666667
vt 0.333333 0.666667
vt 0.000000 0.583333
vt 0.333333 0.583333
vt 0.000000 0.500000
vt 0.333333 0.500000
vt 0.000000 0.416667
vt 0.333333 0.416667
vt 0.000000 0.333333
vt 0.333333 0.333333
vt 0.000000 0.250000
vt 0.333333 0.250000
vt 0.000000 0.166667
vt 0.333333 0.166667
vt 0.000000 0.083333
vt 0.333333 0.083333
vt 0.000000 0.000000
vt 0.333333 0.000000
vt 0.000000 1.000000
vt 0.333333 1.000000
vt 0.000000 0.000000
vt 0.000000 0.083333
vt 1.000000 0.000000
vt 0.666667 0.000000
vt 1.000000 1.000000
vt 1.000000 0.916667
vt 0.000000 1.000000
vt 0.333333 1.000000
vt 0.000000 0.916667
vt 0.000000 0.833333
vt 0.000000 0.750000
vt 0.000000 0.666667
vt 0.000000 0.583333
vt 0.000000 0.500000
vt 0.000000 0.416667
vt 0.000000 0.333333
vt 0.000000 0.250000
vt 0.000000 0.166667
vt 1.000000 0.083333
vt 1.000000 0.166667
vt 1.000000 0.250000
vt 1.000000 0.333333
vt 1.000000 0.416667
vt 1.000000 0.500000
vt 1.000000 0.583333
vt 1.000000 0.666667
vt 1.000000 0.750000
vt 1.000000 0.833333
vt 0.333333 0.000000
vt 0.666667 1.000000
vt 0.666667 1.000000
vt 0.333333 1.000000
vt 1.000000 1.000000
vt 0.333333 0.000000
vt 0.666667 0.000000
vt 0.000000 0.000000
vt 1.000000 0.833333
vt 1.000000 0.916667
vt 1.000000 0.750000
vt 1.000000 0.666667
vt 1.000000 0.583333
vt 1.000000 0.500000
vt 1.000000 0.416667
vt 1.000000 0.333333
vt 1.000000 0.250000
vt 1.000000 0.166667
vt 1.000000 0.083333
vt 1.000000 0.000000
vt 0.000000 0.166667
vt 0.000000 0.083333
vt 0.000000 0.250000
vt 0.000000 0.333333
vt 0.000000 0.416667
vt 0.000000 0.500000
vt 0.000000 0.583333
vt 0.000000 0.666667
vt 0.000000 0.750000
vt 0.000000 0.833333
vt 0.000000 0.916667
vt 0.000000 1.000000
vn 0.2131 0.8844 -0.4153
vn -0.0757 0.9971 -0.0068
vn -0.0831 0.9965 -0.0118
vn -0.0922 0.9954 -0.0264
vn -0.1011 0.9925 -0.0682
vn -0.0981 0.9847 -0.1443
vn -0.0775 0.9719 -0.2224
vn -0.0369 0.9612 -0.2732
vn -0.0207 0.9588 -0.2833
vn 0.0333 0.9502 -0.3098
vn 0.1128 0.9369 -0.3309
vn 0.1992 0.9158 -0.3487
vn -0.1805 0.9484 0.2608
vn -0.0025 1.0000 -0.0016
vn -0.1272 0.9581 0.2568
vn -0.0083 1.0000 -0.0054
vn -0.0675 0.9613 0.2670
vn -0.0149 0.9999 -0.0068
vn -0.0224 0.9560 0.2924
vn -0.0195 0.9998 -0.0068
vn -0.0001 0.9511 0.3089
vn -0.0223 0.9997 -0.0049
vn 0.0350 0.9545 0.2962
vn -0.0225 0.9997 -0.0028
vn 0.0767 0.9698 0.2317
vn -0.0203 0.9998 -0.0013
vn 0.0921 0.9844 0.1502
vn -0.0170 0.9998 -0.0041
vn 0.0915 0.9928 0.0766
vn -0.0155 0.9999 -0.0022
vn 0.0821 0.9957 0.0419
vn -0.0137 0.9999 0.0009
vn 0.0753 0.9969 0.0206
vn -0.0124 0.9999 -0.0006
vn -0.1923 0.9299 0.3135
vn -0.0001 1.0000 0.0002
vn 0.2122 -0.8854 -0.4136
vn -0.0695 -0.9976 -0.0034
vn -0.0788 -0.9969 -0.0079
vn -0.0910 -0.9957 -0.0182
vn -0.1016 -0.9931 -0.0594
vn -0.0937 -0.9849 -0.1454
vn -0.0740 -0.9727 -0.2200
vn -0.0368 -0.9616 -0.2721
vn -0.0206 -0.9592 -0.2821
vn 0.0332 -0.9507 -0.3084
vn 0.1121 -0.9376 -0.3293
vn 0.1980 -0.9167 -0.3471
vn -0.1794 -0.9490 0.2593
vn -0.0023 -1.0000 -0.0020
vn -0.1265 -0.9585 0.2553
vn -0.0081 -0.9999 -0.0059
vn -0.0673 -0.9617 0.2656
vn -0.0148 -0.9999 -0.0073
vn -0.0226 -0.9566 0.2907
vn -0.0196 -0.9998 -0.0073
vn -0.0005 -0.9517 0.3070
vn -0.0223 -0.9997 -0.0055
vn 0.0345 -0.9546 0.2958
vn -0.0226 -0.9997 -0.0034
vn 0.0761 -0.9685 0.2373
vn -0.0204 -0.9998 -0.0011
vn 0.0947 -0.9835 0.1544
vn -0.0151 -0.9999 0.0049
vn 0.0960 -0.9925 0.0759
vn -0.0068 -1.0000 0.0047
vn 0.0880 -0.9955 0.0346
vn 0.0025 -1.0000 0.0019
vn 0.0826 -0.9964 0.0174
vn 0.0098 -0.9999 0.0026
vn -0.1912 -0.9307 0.3118
vn 0.0001 -1.0000 -0.0002
vn 0.8096 -0.5519 0.1998
vn -0.0458 -0.8915 -0.4507
vn 0.0701 -0.9872 -0.1434
vn -0.5435 -0.8188 -0.1851
vn -0.2110 -0.9537 0.2143
vn -0.1006 -0.9849 0.1407
vn -0.0775 -0.9858 0.1489
vn -0.0436 -0.9849 0.1675
vn -0.0132 -0.9806 0.1955
vn 0.0020 -0.9730 0.2310
vn 0.0362 -0.9629 0.2674
vn 0.1013 -0.9493 0.2977
vn 0.1856 -0.9319 0.3117
vn 0.3299 -0.8972 0.2937
vn 0.5046 -0.8251 0.2541
vn -0.7953 -0.6026 -0.0662
vn -0.7395 -0.6687 -0.0772
vn -0.6688 -0.7333 -0.1224
vn -0.3858 -0.8971 -0.2155
vn -0.1604 -0.9570 -0.2419
vn -0.0789 -0.9692 -0.2332
vn -0.0241 -0.9773 -0.2107
vn -0.0170 -0.9819 -0.1887
vn 0.0165 -0.9853 -0.1700
vn 0.0481 -0.9870 -0.1534
vn 0.0786 -0.9864 -0.1442
vn 0.0755 -0.8142 -0.5757
vn 0.0048 -0.8507 -0.5256
vn 0.2158 -0.9557 -0.2004
vn -0.1629 -0.9550 -0.2477
vn -0.1615 0.9559 -0.2454
vn -0.5493 0.0141 -0.8355
vn 0.2197 0.9552 -0.1982
vn -0.4808 0.0197 -0.8766
vn -0.0117 0.8461 -0.5329
vn -0.0064 -0.0133 -0.9999
vn 0.0697 0.8226 -0.5643
vn 0.1099 0.0147 -0.9938
vn 0.0778 0.9867 -0.1425
vn 0.4846 0.0306 -0.8742
vn 0.0475 0.9873 -0.1515
vn 0.3203 0.0343 -0.9467
vn 0.0163 0.9857 -0.1679
vn 0.1300 0.0324 -0.9910
vn -0.0169 0.9823 -0.1866
vn -0.0533 0.0276 -0.9982
vn -0.0239 0.9777 -0.2085
vn -0.0768 0.0225 -0.9968
vn -0.0793 0.9693 -0.2327
vn -0.2914 0.0078 -0.9566
vn -0.1775 0.9498 -0.2575
vn -0.5379 -0.0969 -0.8374
vn -0.4424 0.8615 -0.2492
vn -0.8564 -0.1530 -0.4931
vn -0.7135 0.6867 -0.1395
vn -0.9798 -0.0692 -0.1875
vn -0.7687 0.6340 -0.0846
vn -0.9933 -0.0373 -0.1091
vn -0.8196 0.5687 -0.0704
vn -0.9955 -0.0299 -0.0902
vn 0.5095 0.8192 0.2633
vn 0.8906 -0.0247 0.4540
vn 0.3330 0.8924 0.3046
vn 0.7423 -0.0363 0.6690
vn 0.1832 0.9330 0.3099
vn 0.5167 0.0100 0.8561
vn 0.1019 0.9499 0.2953
vn 0.3404 0.0116 0.9402
vn 0.0365 0.9625 0.2686
vn 0.1609 -0.0080 0.9869
vn 0.0022 0.9725 0.2327
vn 0.0428 -0.0135 0.9990
vn -0.0131 0.9802 0.1975
vn -0.0309 -0.0215 0.9993
vn -0.0440 0.9845 0.1695
vn -0.2198 -0.0285 0.9751
vn -0.0783 0.9855 0.1506
vn -0.4428 -0.0283 0.8962
vn -0.1015 0.9846 0.1421
vn -0.5761 -0.0250 0.8170
vn -0.2137 0.9524 0.2172
vn -0.7841 -0.0188 0.6204
vn -0.5420 0.8202 -0.1828
vn -0.9208 0.0079 -0.3899
vn 0.0693 0.9875 -0.1418
vn 0.4366 0.0292 -0.8992
vn -0.0503 0.8787 -0.4747
vn -0.0309 -0.0540 -0.9981
vn 0.8019 0.5628 0.2007
vn 0.9734 0.0109 0.2287
usemtl None
s off
f 51/1/1 26/2/1 4/3/1 29/4/1
f 28/5/2 2/6/2 16/7/2 31/8/2
f 31/8/3 16/7/3 17/9/3 33/10/3
f 33/10/4 17/9/4 18/11/4 35/12/4
f 35/12/5 18/11/5 19/13/5 37/14/5
f 37/14/6 19/13/6 20/15/6 39/16/6
f 39/16/7 20/15/7 21/17/7 41/18/7
f 41/18/8 21/17/8 22/19/8 43/20/8
f 43/20/9 22/19/9 23/21/9 45/22/9
f 45/22/10 23/21/10 24/23/10 47/24/10
f 47/24/11 24/23/11 25/25/11 49/26/11
f 49/26/12 25/25/12 26/2/12 51/1/12
f 6/27/13 50/28/13 52/29/13 5/30/13
f 50/28/14 49/26/14 51/1/14 52/29/14
f 7/31/15 48/32/15 50/28/15 6/27/15
f 48/32/16 47/24/16 49/26/16 50/28/16
f 8/33/17 46/34/17 48/32/17 7/31/17
f 46/34/18 45/22/18 47/24/18 48/32/18
f 9/35/19 44/36/19 46/34/19 8/33/19
f 44/36/20 43/20/20 45/22/20 46/34/20
f 10/37/21 42/38/21 44/36/21 9/35/21
f 42/38/22 41/18/22 43/20/22 44/36/22
f 11/39/23 40/40/23 42/38/23 10/37/23
f 40/40/24 39/16/24 41/18/24 42/38/24
f 12/41/25 38/42/25 40/40/25 11/39/25
f 38/42/26 37/14/26 39/16/26 40/40/26
f 13/43/27 36/44/27 38/42/27 12/41/27
f 36/44/28 35/12/28 37/14/28 38/42/28
f 14/45/29 34/46/29 36/44/29 13/43/29
f 34/46/30 33/10/30 35/12/30 36/44/30
f 15/47/31 32/48/31 34/46/31 14/45/31
f 32/48/32 31/8/32 33/10/32 34/46/32
f 1/49/33 27/50/33 32/48/33 15/47/33
f 27/50/34 28/5/34 31/8/34 32/48/34
f 5/30/35 52/29/35 30/51/35 3/52/35
f 52/29/36 51/1/36 29/4/36 30/51/36
f 103/53/37 81/54/37 56/55/37 78/56/37
f 80/57/38 83/58/38 68/59/38 54/60/38
f 83/58/39 85/61/39 69/62/39 68/59/39
f 85/61/40 87/63/40 70/64/40 69/62/40
f 87/63/41 89/65/41 71/66/41 70/64/41
f 89/65/42 91/67/42 72/68/42 71/66/42
f 91/67/43 93/69/43 73/70/43 72/68/43
f 93/69/44 95/71/44 74/72/44 73/70/44
f 95/71/45 97/73/45 75/74/45 74/72/45
f 97/73/46 99/75/46 76/76/46 75/74/46
f 99/75/47 101/77/47 77/78/47 76/76/47
f 101/77/48 103/53/48 78/56/48 77/78/48
f 58/79/49 57/80/49 104/81/49 102/82/49
f 102/82/50 104/81/50 103/53/50 101/77/50
f 59/83/51 58/79/51 102/82/51 100/84/51
f 100/84/52 102/82/52 101/77/52 99/75/52
f 60/85/53 59/83/53 100/84/53 98/86/53
f 98/86/54 100/84/54 99/75/54 97/73/54
f 61/87/55 60/85/55 98/86/55 96/88/55
f 96/88/56 98/86/56 97/73/56 95/71/56
f 62/89/57 61/87/57 96/88/57 94/90/57
f 94/90/58 96/88/58 95/71/58 93/69/58
f 63/91/59 62/89/59 94/90/59 92/92/59
f 92/92/60 94/90/60 93/69/60 91/67/60
f 64/93/61 63/91/61 92/92/61 90/94/61
f 90/94/62 92/92/62 91/67/62 89/65/62
f 65/95/63 64/93/63 90/94/63 88/96/63
f 88/96/64 90/94/64 89/65/64 87/63/64
f 66/97/65 65/95/65 88/96/65 86/98/65
f 86/98/66 88/96/66 87/63/66 85/61/66
f 67/99/67 66/97/67 86/98/67 84/100/67
f 84/100/68 86/98/68 85/61/68 83/58/68
f 53/101/69 67/99/69 84/100/69 79/102/69
f 79/102/70 84/100/70 83/58/70 80/57/70
f 57/80/71 55/103/71 82/104/71 104/81/71
f 104/81/72 82/104/72 81/54/72 103/53/72
f 106/105/73 134/106/73 67/99/73 53/101/73
f 108/107/74 160/108/74 80/57/74 54/60/74
f 112/109/75 156/110/75 78/56/75 56/55/75
f 110/111/76 164/112/76 82/104/76 55/103/76
f 114/113/77 110/111/77 55/103/77 57/80/77
f 116/114/78 114/113/78 57/80/78 58/79/78
f 118/115/79 116/114/79 58/79/79 59/83/79
f 120/116/80 118/115/80 59/83/80 60/85/80
f 122/117/81 120/116/81 60/85/81 61/87/81
f 124/118/82 122/117/82 61/87/82 62/89/82
f 126/119/83 124/118/83 62/89/83 63/91/83
f 128/120/84 126/119/84 63/91/84 64/93/84
f 130/121/85 128/120/85 64/93/85 65/95/85
f 132/122/86 130/121/86 65/95/86 66/97/86
f 134/106/87 132/122/87 66/97/87 67/99/87
f 136/123/88 108/107/88 54/60/88 68/59/88
f 138/124/89 136/123/89 68/59/89 69/62/89
f 140/125/90 138/124/90 69/62/90 70/64/90
f 142/126/91 140/125/91 70/64/91 71/66/91
f 144/127/92 142/126/92 71/66/92 72/68/92
f 146/128/93 144/127/93 72/68/93 73/70/93
f 148/129/94 146/128/94 73/70/94 74/72/94
f 150/130/95 148/129/95 74/72/95 75/74/95
f 152/131/96 150/130/96 75/74/96 76/76/96
f 154/132/97 152/131/97 76/76/97 77/78/97
f 156/110/98 154/132/98 77/78/98 78/56/98
f 158/133/99 106/105/99 53/101/99 79/102/99
f 160/108/100 158/133/100 79/102/100 80/57/100
f 162/134/101 112/109/101 56/55/101 81/54/101
f 164/112/102 162/134/102 81/54/102 82/104/102
f 30/51/103 29/4/103 161/135/103 163/136/103
f 163/136/104 161/135/104 162/134/104 164/112/104
f 29/4/105 4/3/105 111/137/105 161/135/105
f 161/135/106 111/137/106 112/109/106 162/134/106
f 28/5/107 27/50/107 157/138/107 159/139/107
f 159/139/108 157/138/108 158/133/108 160/108/108
f 27/50/109 1/49/109 105/140/109 157/138/109
f 157/138/110 105/140/110 106/105/110 158/133/110
f 26/2/111 25/25/111 153/141/111 155/142/111
f 155/142/112 153/141/112 154/132/112 156/110/112
f 25/25/113 24/23/113 151/143/113 153/141/113
f 153/141/114 151/143/114 152/131/114 154/132/114
f 24/23/115 23/21/115 149/144/115 151/143/115
f 151/143/116 149/144/116 150/130/116 152/131/116
f 23/21/117 22/19/117 147/145/117 149/144/117
f 149/144/118 147/145/118 148/129/118 150/130/118
f 22/19/119 21/17/119 145/146/119 147/145/119
f 147/145/120 145/146/120 146/128/120 148/129/120
f 21/17/121 20/15/121 143/147/121 145/146/121
f 145/146/122 143/147/122 144/127/122 146/128/122
f 20/15/123 19/13/123 141/148/123 143/147/123
f 143/147/124 141/148/124 142/126/124 144/127/124
f 19/13/125 18/11/125 139/149/125 141/148/125
f 141/148/126 139/149/126 140/125/126 142/126/126
f 18/11/127 17/9/127 137/150/127 139/149/127
f 139/149/128 137/150/128 138/124/128 140/125/128
f 17/9/129 16/7/129 135/151/129 137/150/129
f 137/150/130 135/151/130 136/123/130 138/124/130
f 16/7/131 2/6/131 107/152/131 135/151/131
f 135/151/132 107/152/132 108/107/132 136/123/132
f 15/47/133 14/45/133 131/153/133 133/154/133
f 133/154/134 131/153/134 132/122/134 134/106/134
f 14/45/135 13/43/135 129/155/135 131/153/135
f 131/153/136 129/155/136 130/121/136 132/122/136
f 13/43/137 12/41/137 127/156/137 129/155/137
f 129/155/138 127/156/138 128/120/138 130/121/138
f 12/41/139 11/39/139 125/157/139 127/156/139
f 127/156/140 125/157/140 126/119/140 128/120/140
f 11/39/141 10/37/141 123/158/141 125/157/141
f 125/157/142 123/158/142 124/118/142 126/119/142
f 10/37/143 9/35/143 121/159/143 123/158/143
f 123/158/144 121/159/144 122/117/144 124/118/144
f 9/35/145 8/33/145 119/160/145 121/159/145
f 121/159/146 119/160/146 120/116/146 122/117/146
f 8/33/147 7/31/147 117/161/147 119/160/147
f 119/160/148 117/161/148 118/115/148 120/116/148
f 7/31/149 6/27/149 115/162/149 117/161/149
f 117/161/150 115/162/150 116/114/150 118/115/150
f 6/27/151 5/30/151 113/163/151 115/162/151
f 115/162/152 113/163/152 114/113/152 116/114/152
f 5/30/153 3/52/153 109/164/153 113/163/153
f 113/163/154 109/164/154 110/111/154 114/113/154
f 3/52/155 30/51/155 163/136/155 109/164/155
f 109/164/156 163/136/156 164/112/156 110/111/156
f 4/3/157 26/2/157 155/142/157 111/137/157
f 111/137/158 155/142/158 156/110/158 112/109/158
f 2/6/159 28/5/159 159/139/159 107/152/159
f 107/152/160 159/139/160 160/108/160 108/107/160
f 1/49/161 15/47/161 133/154/161 105/140/161
f 105/140/162 133/154/162 134/106/162 106/105/162
